<?xml version="1.0" encoding="UTF-8"?>
<svg width="128px" height="128px" viewBox="0 0 128 128" version="1.1" xmlns="http://www.w3.org/2000/svg" xmlns:xlink="http://www.w3.org/1999/xlink">
    <!-- Generator: Sketch 59.1 (86144) - https://sketch.com -->
    <title>icon</title>
    <desc>Created with Sketch.</desc>
    <g id="icon" stroke="none" stroke-width="1" fill="none" fill-rule="evenodd">
        <rect fill="#4953FF" x="0" y="0" width="128" height="128"></rect>
        <path d="M21.7389418,72 L18,72 L18,55 L21.7389418,55 L21.7389418,61.4842857 L21.8809269,61.4842857 L26.8740707,55 L31.4885875,55 L25.9748316,61.6785714 L31.5832443,72 L27.2526977,72 L23.395435,64.7871428 L21.7389418,66.8028572 L21.7389418,72 Z M67.9624855,72 L64.2235437,72 L64.2235437,55 L70.7075314,55 C72.411353,55 73.8075401,55.5342857 74.919757,56.5785714 C76.0319739,57.6228571 76.5762502,58.9585714 76.5762502,60.61 C76.5762502,62.82 75.3693765,64.6657143 73.6418908,65.5642857 L77.1678549,72 L73.0029577,72 L70.1869193,66.3171428 L67.9624855,66.3171428 L67.9624855,72 Z M67.9624855,58.2785714 L67.9624855,63.0385714 L70.3762328,63.0385714 C71.7960841,63.0385714 72.7426516,62.14 72.7426516,60.61 C72.7426516,59.1771429 71.8197483,58.2785714 70.3289044,58.2785714 L67.9624855,58.2785714 Z M92.9664459,55 L92.9664459,58.3271429 L88.3282649,58.3271429 L88.3282649,72 L84.5656589,72 L84.5656589,58.3271429 L79.9511421,58.3271429 L79.9511421,55 L92.9664459,55 Z M104.296931,55 L110,72 L106.024417,72 L105.03052,68.9885715 L98.6885179,68.9885715 L97.7182861,72 L93.8846875,72 L99.5167644,55 L104.296931,55 Z M51.2666243,55 C55.8113646,55 59.4956046,58.8055796 59.4956046,63.5 C59.4956046,68.1944204 55.8113646,72 51.2666243,72 L42.9553542,72 C38.4106138,72 34.7263739,68.1944204 34.7263739,63.5 C34.7263739,58.8055796 38.4106138,55 42.9553542,55 L51.2666243,55 Z M51.0079991,58.6428571 L43.2139793,58.6428571 C40.6169847,58.6428571 38.5117048,60.8174741 38.5117048,63.5 C38.5117048,66.182526 40.6169847,68.3571428 43.2139793,68.3571428 L43.2139793,68.3571428 L51.0079991,68.3571428 C53.6049936,68.3571428 55.7102737,66.182526 55.7102737,63.5 C55.7102737,60.8174741 53.6049936,58.6428571 51.0079991,58.6428571 L51.0079991,58.6428571 Z M101.97784,59.2257143 L101.764863,59.2257143 L99.7060779,65.5642857 L104.01296,65.5642857 L101.97784,59.2257143 Z" id="logo" fill="#FFFFFF" fill-rule="nonzero"></path>
    </g>
</svg>